<?xml version="1.0" encoding="utf-8"?>
<!-- Generator: Adobe Illustrator 24.3.0, SVG Export Plug-In . SVG Version: 6.00 Build 0)  -->
<svg version="1.1" id="Layer_1" xmlns="http://www.w3.org/2000/svg" xmlns:xlink="http://www.w3.org/1999/xlink" x="0px" y="0px"
	 viewBox="0 0 189 66" style="enable-background:new 0 0 189 66;" xml:space="preserve">
<style type="text/css">
	.st0{fill-rule:evenodd;clip-rule:evenodd;fill:#039CB3;}
	.st1{fill-rule:evenodd;clip-rule:evenodd;fill:#FAA931;}
	.st2{fill:#747577;}
</style>
<g>
	<g>
		<path class="st0" d="M113.42,8.42c3,0,6.86,1.07,8.72,1.92c1.87,0.85,2.12,1.08,3.05,1.73h-20.18l7.57,3.96h25.44l-0.74,3.22
			h-8.06c-0.82,3.79-5.84,4.9-9.08,4.9c-5.29,0-14.2-2.83-15.75-8.72c-0.55-2.07,0.29-3.88,1.94-5.1
			C107.97,9.12,110.42,8.42,113.42,8.42 M106.1,47.33c-6.4,0-9.2-3.98-7.68-9.89c1.24-4.82,5.42-7.46,10.27-7.46
			c6.27,0,9.18,4.11,7.68,9.91C115.13,44.7,110.96,47.33,106.1,47.33z M108.36,33.39c-2.9,0.08-4.46,2.2-5.11,4.77
			c-0.7,2.74-0.09,5.77,3.2,5.77c2.89,0,4.45-2.18,5.1-4.75C112.24,36.44,111.86,33.47,108.36,33.39z M116.36,46.89l3.9-16.91h5.01
			l-0.63,2.75c1.8-1.84,3.57-2.75,6.27-2.75c5.17,0,5.64,3.31,4.73,7.24l-2.23,9.66h-5.01l2.23-9.67c0.41-1.79,0.61-3.67-2.02-3.67
			c-2.59,0-4.66,2.12-5.22,4.55l-2.03,8.79H116.36z M40.05,36.89h8.23c0-2.33-1.11-3.5-3.33-3.5
			C42.61,33.39,40.97,34.55,40.05,36.89z M52.82,39.75H42.28l-2.23-2.87c-0.27,0.92-0.44,1.85-0.52,2.87l0,0
			c-0.02,0.28-0.04,0.59-0.04,0.95c0,2.14,1.32,3.22,3.96,3.22c1.41,0,2.64-0.75,3.68-2.26h4.93c-0.81,1.91-1.91,3.31-3.3,4.2
			c-1.51,0.97-3.51,1.47-6.01,1.47c-2.45,0-4.4-0.63-5.83-1.88c-1.44-1.25-2.15-3.03-2.15-5.32c0-2.76,0.9-5.09,2.67-7.04
			c1.89-2.07,4.28-3.12,7.22-3.12c2.57,0,4.61,0.62,6.11,1.85c1.5,1.23,2.32,3.01,2.32,5.35C53.1,38.04,53,38.9,52.82,39.75z
			 M84.05,46.89l2.62-11.35c0.71-3.08,3.59-5.56,6.29-5.56h5.12h1.52l-0.97,4.21h-2.08c-4.28,0-5.01,1.96-5.82,5.49l-1.67,7.21
			H84.05z M26.7,46.89l5.25-22.73h5.01l-5.25,22.73H26.7z M174.11,40.6l0.37-1.6c-0.65,0.34-2.02,0.61-4.15,0.79
			c-2.43,0.22-3.65,1.1-3.65,2.67c0,1.41,1.57,1.85,2.71,1.85C171.71,44.31,173.53,43.13,174.11,40.6z M168.7,35.42h-4.62
			c0.56-3.63,3.39-5.44,8.51-5.44c4.73,0,8.55,1.94,7.35,7.12l-1.53,6.6c-0.24,1.01-0.43,2.18-0.07,3.18h-5.26l-0.04-1.62
			c-1.34,1.38-3.19,2.07-5.47,2.07c-2.66,0-5.81-1.2-5.81-4.33c0-3.75,3.69-5.26,6.87-5.6c1.79-0.19,6.18,0.2,6.73-2.22
			c0.27-1.15-0.94-2.18-3.02-2.18C170.21,33,169,33.81,168.7,35.42z M14.12,36.89h8.23c0-2.33-1.11-3.5-3.33-3.5
			C16.68,33.39,15.05,34.55,14.12,36.89z M26.89,39.75H16.35l-2.23-2.87c-0.27,0.92-0.44,1.85-0.52,2.87h0
			c-0.02,0.28-0.04,0.59-0.04,0.95c0,2.14,1.32,3.22,3.96,3.22c1.41,0,2.64-0.75,3.68-2.26h4.93c-0.81,1.91-1.91,3.31-3.3,4.2
			c-1.51,0.97-3.51,1.47-6.01,1.47c-2.45,0-4.4-0.63-5.83-1.88c-1.44-1.25-2.15-3.03-2.15-5.32c0-2.76,0.9-5.09,2.67-7.04
			c1.89-2.07,4.28-3.12,7.22-3.12c2.57,0,4.61,0.62,6.11,1.85c1.5,1.23,2.32,3.01,2.32,5.35C27.17,38.04,27.08,38.9,26.89,39.75z
			 M72.31,36.12h-4.93c0-1.83-1.1-2.74-3.3-2.74c-1.69,0-3,0.81-3.92,2.42c-0.74,1.3-1.11,2.81-1.11,4.55
			c0,2.38,1.15,3.57,3.42,3.57c1.97,0,3.28-1.02,3.98-3.06h4.93c-1.57,4.31-4.67,6.46-9.27,6.46c-5.32,0-7.99-2.36-7.99-7.07
			c0-2.91,0.88-5.33,2.64-7.26c1.87-2.02,4.37-3.02,7.5-3.02c2.34,0,4.21,0.48,5.62,1.43C71.46,32.47,72.27,34.04,72.31,36.12z
			 M161.97,36.12h-4.93c0-1.83-1.1-2.74-3.3-2.74c-1.69,0-3,0.81-3.92,2.42c-0.74,1.3-1.11,2.81-1.11,4.55
			c0,2.38,1.13,3.57,3.4,3.57c1.97,0,3.3-1.02,3.99-3.06h4.93c-1.57,4.31-4.66,6.46-9.27,6.46c-5.32,0-7.99-2.36-7.99-7.07
			c0-2.91,0.88-5.33,2.64-7.26c1.87-2.02,4.37-3.02,7.5-3.02c2.34,0,4.21,0.48,5.63,1.43C161.11,32.47,161.92,34.04,161.97,36.12z
			 M83.15,25.39l-1.05,4.59h5.86c-1.02,0.45-2.59,2.17-2.88,3.53h-3.8l-1.83,7.94c-0.58,2.52,2.03,2.7,3.3,2.05l-0.78,3.38
			c-0.89,0.33-2.2,0.45-3.13,0.45c-3.48,0-5.32-1.89-4.56-5.15l2-8.67h-3.32l0.81-3.53H75c1.44,0.01,2.14-0.27,2.52-1.91l0.62-2.68
			H83.15z M135.49,46.89l3.9-16.91h5.01l-3.9,16.91H135.49z"/>
		<path class="st1" d="M137.27,19.25l0.74-3.22c-8.66-8.97-27.98-13.58-39.38-7.33c-6.62,3.62-6.55,11.1-0.32,15.46h-4.9
			c-2.1,0-3.67-2.01-3.2-4.01l3.73-16.17c0.34-1.46,1.64-2.55,3.2-2.55h42.63c1.81,0,3.61,2.24,3.22,3.93l-2.57,11.13
			C140.08,17.97,138.9,19.25,137.27,19.25 M141.24,24.15h4.04c0.27,0,0.42,0.22,0.36,0.5l-0.63,2.74c-0.06,0.27-0.34,0.5-0.61,0.5
			h-4.03c-0.27,0-0.43-0.22-0.37-0.5l0.63-2.74C140.69,24.38,140.97,24.15,141.24,24.15z"/>
	</g>
	<g>
		<path class="st2" d="M115.52,54.15c0.47-0.09,1.13-0.16,2.03-0.16c0.97,0,1.68,0.22,2.15,0.63c0.43,0.38,0.71,0.98,0.71,1.7
			c0,0.73-0.22,1.33-0.63,1.74c-0.53,0.56-1.36,0.82-2.3,0.82c-0.25,0-0.47-0.01-0.65-0.05v2.9h-1.32V54.15z M116.83,57.73
			c0.16,0.05,0.38,0.06,0.65,0.06c0.99,0,1.6-0.51,1.6-1.41c0-0.85-0.56-1.31-1.48-1.31c-0.37,0-0.62,0.03-0.77,0.07V57.73z"/>
		<path class="st2" d="M126.22,58.9c0,2.04-1.36,2.95-2.7,2.95c-1.49,0-2.63-1.08-2.63-2.86c0-1.82,1.13-2.94,2.72-2.94
			C125.17,56.05,126.22,57.22,126.22,58.9z M122.26,58.96c0,1.07,0.5,1.88,1.3,1.88c0.76,0,1.28-0.79,1.28-1.9
			c0-0.87-0.37-1.86-1.27-1.86C122.63,57.08,122.26,58.04,122.26,58.96z"/>
		<path class="st2" d="M132.15,53.64v6.53c0,0.57,0.02,1.19,0.04,1.56H131l-0.05-0.88h-0.02c-0.31,0.62-0.95,1-1.72,1
			c-1.25,0-2.24-1.13-2.24-2.84c-0.01-1.86,1.09-2.96,2.35-2.96c0.72,0,1.24,0.32,1.48,0.73h0.02v-3.15H132.15z M130.82,58.49
			c0-0.11-0.01-0.25-0.03-0.36c-0.12-0.55-0.54-0.99-1.14-0.99c-0.85,0-1.33,0.8-1.33,1.83c0,1.01,0.47,1.76,1.32,1.76
			c0.54,0,1.01-0.39,1.14-0.99c0.03-0.12,0.04-0.26,0.04-0.41V58.49z"/>
		<path class="st2" d="M138.41,53.64v6.53c0,0.57,0.02,1.19,0.04,1.56h-1.19l-0.05-0.88h-0.02c-0.31,0.62-0.95,1-1.72,1
			c-1.25,0-2.24-1.13-2.24-2.84c-0.01-1.86,1.09-2.96,2.35-2.96c0.72,0,1.24,0.32,1.48,0.73h0.02v-3.15H138.41z M137.09,58.49
			c0-0.11-0.01-0.25-0.03-0.36c-0.12-0.55-0.54-0.99-1.14-0.99c-0.85,0-1.33,0.8-1.33,1.83c0,1.01,0.48,1.76,1.32,1.76
			c0.54,0,1.01-0.39,1.14-0.99c0.03-0.12,0.04-0.26,0.04-0.41V58.49z"/>
		<path class="st2" d="M142.79,61.73l-0.09-0.62h-0.03c-0.32,0.43-0.87,0.74-1.55,0.74c-1.06,0-1.65-0.81-1.65-1.65
			c0-1.4,1.18-2.11,3.12-2.1v-0.09c0-0.37-0.14-0.97-1.07-0.97c-0.52,0-1.06,0.17-1.41,0.41l-0.26-0.91
			c0.39-0.25,1.07-0.49,1.9-0.49c1.68,0,2.17,1.13,2.17,2.34v2.01c0,0.5,0.02,0.99,0.08,1.33H142.79z M142.62,59.02
			c-0.94-0.02-1.83,0.19-1.83,1.04c0,0.55,0.33,0.8,0.76,0.8c0.53,0,0.92-0.36,1.04-0.76c0.03-0.1,0.04-0.22,0.04-0.31V59.02z"/>
		<path class="st2" d="M145.31,57.97c0-0.75-0.01-1.29-0.04-1.79h1.15l0.04,1.06h0.04c0.26-0.79,0.87-1.19,1.44-1.19
			c0.13,0,0.2,0.01,0.31,0.03v1.32c-0.11-0.02-0.23-0.04-0.39-0.04c-0.64,0-1.07,0.43-1.19,1.06c-0.02,0.13-0.04,0.27-0.04,0.43
			v2.87h-1.33V57.97z"/>
		<path class="st2" d="M157.27,61.38c-0.46,0.18-1.37,0.43-2.34,0.43c-1.23,0-2.16-0.33-2.85-1.03c-0.65-0.65-1.02-1.66-1.01-2.83
			c0-2.43,1.64-3.99,4.04-3.99c0.9,0,1.6,0.19,1.93,0.37l-0.29,1.13c-0.4-0.18-0.88-0.33-1.65-0.33c-1.55,0-2.64,0.97-2.64,2.76
			c0,1.74,1.01,2.78,2.52,2.78c0.47,0,0.83-0.07,1-0.16V58.6h-1.28v-1.11h2.57V61.38z"/>
		<path class="st2" d="M158.6,57.97c0-0.75-0.01-1.29-0.04-1.79h1.15l0.04,1.06h0.04c0.26-0.79,0.87-1.19,1.44-1.19
			c0.13,0,0.2,0.01,0.31,0.03v1.32c-0.11-0.02-0.23-0.04-0.39-0.04c-0.64,0-1.07,0.43-1.19,1.06c-0.02,0.13-0.04,0.27-0.04,0.43
			v2.87h-1.33V57.97z"/>
		<path class="st2" d="M167.34,58.9c0,2.04-1.36,2.95-2.7,2.95c-1.49,0-2.63-1.08-2.63-2.86c0-1.82,1.13-2.94,2.72-2.94
			C166.29,56.05,167.34,57.22,167.34,58.9z M163.38,58.96c0,1.07,0.5,1.88,1.3,1.88c0.76,0,1.28-0.79,1.28-1.9
			c0-0.87-0.37-1.86-1.27-1.86C163.76,57.08,163.38,58.04,163.38,58.96z"/>
		<path class="st2" d="M173.13,60.07c0,0.66,0.02,1.21,0.04,1.66h-1.17l-0.07-0.84h-0.02c-0.23,0.4-0.74,0.97-1.68,0.97
			c-0.96,0-1.83-0.6-1.83-2.42v-3.26h1.33v3.02c0,0.92,0.28,1.52,0.98,1.52c0.53,0,0.87-0.4,1.01-0.75
			c0.04-0.13,0.08-0.27,0.08-0.43v-3.35h1.33V60.07z"/>
		<path class="st2" d="M174.56,58.03c0-0.73-0.02-1.32-0.04-1.85h1.17l0.06,0.85h0.02c0.39-0.63,1-0.98,1.8-0.98
			c1.21,0,2.21,1.09,2.21,2.83c0,2.01-1.2,2.97-2.4,2.97c-0.66,0-1.21-0.3-1.48-0.74h-0.02v2.87h-1.33V58.03z M175.89,59.41
			c0,0.14,0.01,0.26,0.04,0.39c0.13,0.57,0.6,0.98,1.17,0.98c0.84,0,1.34-0.74,1.34-1.84c0-0.98-0.45-1.78-1.31-1.78
			c-0.55,0-1.06,0.42-1.19,1.04c-0.03,0.11-0.05,0.24-0.05,0.35V59.41z"/>
	</g>
</g>
</svg>
